<?xml version="1.0" encoding="UTF-8" standalone="no"?>
<svg
   height="24"
   viewBox="0 -960 960 960"
   width="24"
   fill="#1f1f1f"
   version="1.1"
   id="svg1"
   sodipodi:docname="manipulator.svg"
   xmlns:inkscape="http://www.inkscape.org/namespaces/inkscape"
   xmlns:sodipodi="http://sodipodi.sourceforge.net/DTD/sodipodi-0.dtd"
   xmlns="http://www.w3.org/2000/svg"
   xmlns:svg="http://www.w3.org/2000/svg">
  <defs
     id="defs1" />
  <sodipodi:namedview
     id="namedview1"
     pagecolor="#ffffff"
     bordercolor="#000000"
     borderopacity="0.25"
     inkscape:showpageshadow="2"
     inkscape:pageopacity="0.0"
     inkscape:pagecheckerboard="0"
     inkscape:deskcolor="#d1d1d1">
    <inkscape:page
       x="0"
       y="0"
       width="960"
       height="960"
       id="page2"
       margin="0"
       bleed="0" />
  </sodipodi:namedview>
  <path
     d="M 159,-120 V -240 H 283 L 181,-574 q -27,-15 -44.5,-44 -17.5,-29 -17.5,-62 0,-50 35,-85 35,-35 85,-35 39,0 69.5,22.5 30.5,22.5 42.5,57.5 h 128 v -40 q 0,-17 11.5,-28.5 11.5,-11.5 28.5,-11.5 9,0 17.5,4 8.5,4 14.5,12 l 68,-64 q 9,-9 21.5,-11.5 12.5,-2.5 24.5,3.5 l 156,72 q 12,6 16.5,17.5 4.5,11.5 -0.5,22.5 -6,12 -17.5,15.5 Q 808,-725 797,-730 l -144,-66 -94,88 v 56 l 94,86 144,-66 q 11,-5 23,-1 12,4 17,15 6,12 1,23 -5,11 -17,17 l -156,74 q -12,6 -24.5,3.5 Q 628,-503 619,-512 l -68,-64 q -6,6 -14.5,11 -8.5,5 -17.5,5 -17,0 -28.5,-11.5 Q 479,-583 479,-600 v -40 H 351 q -3,8 -6.5,15 -3.5,7 -9.5,15 l 200,370 h 144 v 120 z m 80,-520 q 17,0 28.5,-11.5 Q 279,-663 279,-680 279,-697 267.5,-708.5 256,-720 239,-720 q -17,0 -28.5,11.5 -11.5,11.5 -11.5,28.5 0,17 11.5,28.5 11.5,11.5 28.5,11.5 z m 126,400 h 78 L 271,-560 h -4 z m 78,0 z"
     id="path1"
     style="display:inline" />
  <path
     sodipodi:type="star"
     style="fill:#ffff00;stroke-width:40"
     id="path2"
     inkscape:flatsided="false"
     sodipodi:sides="3"
     sodipodi:cx="670.62598"
     sodipodi:cy="-204.42807"
     sodipodi:r1="210.1506"
     sodipodi:r2="105.0753"
     sodipodi:arg1="-1.5849798"
     sodipodi:arg2="-0.53778222"
     inkscape:rounded="0"
     inkscape:randomized="0"
     d="m 667.64541,-414.55754 93.22415,156.30648 93.22416,156.30648 -181.97746,2.581243 -181.97746,2.581246 88.75331,-158.887729 z"
     inkscape:transform-center-x="-1.9433202"
     inkscape:transform-center-y="-68.839086"
     transform="matrix(1.3040067,0,0,1.3434181,-226.85618,43.464222)" />
  <path
     d="M 343.49922,-44.945954 647.13861,-585.26515 950.778,-44.945954 Z m 95.23236,-56.875696 H 855.54565 L 647.13861,-471.51373 Z m 208.40703,-28.43785 q 11.73152,0 19.66755,-8.17589 7.93603,-8.17588 7.93603,-20.26197 0,-12.08608 -7.93603,-20.26197 -7.93603,-8.17588 -19.66755,-8.17588 -11.73152,0 -19.66755,8.17588 -7.93603,8.17589 -7.93603,20.26197 0,12.08609 7.93603,20.26197 7.93603,8.17589 19.66755,8.17589 z m -27.60358,-85.31357 h 55.20716 v -142.18926 h -55.20716 z m 27.60358,-71.09463 z"
     id="path1-5"
     style="display:inline;stroke-width:0.70044" />
</svg>
